<svg xmlns="http://www.w3.org/2000/svg" viewBox="0.0 -754.0 2484.0 768.0"><path d="M 496.0 -740.0 L 582.0 -740.0 L 582.0 0.0 L 500.0 0.0 L 86.0 -587.0 L 86.0 0.0 L 0.0 0.0 L 0.0 -740.0 L 82.0 -740.0 L 496.0 -153.0" fill="white"></path><path d="M 760.0 -636.0 L 760.0 -717.0 C 738.0 -723.0 694.0 -723.0 672.0 -717.0 L 672.0 -636.0 C 694.0 -630.0 738.0 -630.0 760.0 -636.0 M 760.0 0.0 L 760.0 -520.0 L 672.0 -530.0 L 672.0 0.0" fill="white"></path><path d="M 1295.0 -520.0 L 1108.0 -267.0 L 1063.0 -319.0 L 1189.0 -520.0" fill="#77b6e1"></path> <path d="M 1294.0 0.0 L 1187.0 0.0 L 1059.0 -206.0 L 932.0 0.0 L 830.0 0.0 L 1016.0 -260.0 L 839.0 -520.0 L 947.0 -520.0" fill="#4d6fb7"></path><path d="M 1685.0 -754.0 C 1870.0 -754.0 2025.0 -619.0 2025.0 -370.0 C 2025.0 -121.0 1870.0 14.0 1685.0 14.0 C 1500.0 14.0 1345.0 -121.0 1345.0 -370.0 C 1345.0 -619.0 1500.0 -754.0 1685.0 -754.0 M 1685.0 -62.0 C 1833.0 -62.0 1927.0 -185.0 1927.0 -370.0 C 1927.0 -555.0 1833.0 -678.0 1685.0 -678.0 C 1537.0 -678.0 1443.0 -555.0 1443.0 -370.0 C 1443.0 -185.0 1537.0 -62.0 1685.0 -62.0" fill="white"></path><path d="M 2232.0 14.0 C 2159.0 14.0 2080.0 -5.0 2035.0 -49.0 L 2075.0 -113.0 C 2122.0 -82.0 2179.0 -66.0 2235.0 -66.0 C 2320.0 -66.0 2386.0 -103.0 2386.0 -181.0 C 2386.0 -249.0 2337.0 -289.0 2224.0 -355.0 C 2138.0 -405.0 2071.0 -458.0 2071.0 -563.0 C 2071.0 -683.0 2168.0 -754.0 2307.0 -754.0 C 2365.0 -754.0 2416.0 -743.0 2462.0 -716.0 L 2432.0 -649.0 C 2396.0 -668.0 2343.0 -674.0 2300.0 -674.0 C 2213.0 -674.0 2165.0 -638.0 2165.0 -575.0 C 2165.0 -513.0 2209.0 -467.0 2281.0 -425.0 C 2414.0 -347.0 2484.0 -295.0 2484.0 -189.0 C 2484.0 -55.0 2371.0 14.0 2232.0 14.0" fill="white"></path></svg>